<mxfile host="app.diagrams.net" modified="2024-04-29T01:07:09.603Z" agent="Mozilla/5.0 (Macintosh; Intel Mac OS X 10_15_7) AppleWebKit/537.36 (KHTML, like Gecko) Chrome/124.0.0.0 Safari/537.36" etag="uqLwjNLgxpI0yiw8BNWv" version="24.3.1" type="github">
  <diagram id="C5RBs43oDa-KdzZeNtuy" name="Page-1">
    <mxGraphModel dx="745" dy="585" grid="1" gridSize="10" guides="1" tooltips="1" connect="1" arrows="1" fold="1" page="1" pageScale="1" pageWidth="827" pageHeight="1169" math="0" shadow="0">
      <root>
        <mxCell id="WIyWlLk6GJQsqaUBKTNV-0" />
        <mxCell id="WIyWlLk6GJQsqaUBKTNV-1" parent="WIyWlLk6GJQsqaUBKTNV-0" />
        <mxCell id="6_tlmnjKF33tlDqkVsmF-9" value="" style="edgeStyle=none;curved=1;rounded=0;orthogonalLoop=1;jettySize=auto;html=1;fontSize=12;startSize=8;endSize=8;" edge="1" parent="WIyWlLk6GJQsqaUBKTNV-1" source="WIyWlLk6GJQsqaUBKTNV-3" target="6_tlmnjKF33tlDqkVsmF-3">
          <mxGeometry relative="1" as="geometry" />
        </mxCell>
        <mxCell id="WIyWlLk6GJQsqaUBKTNV-3" value="package farkle&amp;nbsp;" style="rounded=1;whiteSpace=wrap;html=1;fontSize=12;glass=0;strokeWidth=1;shadow=0;" parent="WIyWlLk6GJQsqaUBKTNV-1" vertex="1">
          <mxGeometry x="140" y="70" width="120" height="40" as="geometry" />
        </mxCell>
        <mxCell id="6_tlmnjKF33tlDqkVsmF-7" value="" style="edgeStyle=none;curved=1;rounded=0;orthogonalLoop=1;jettySize=auto;html=1;fontSize=12;startSize=8;endSize=8;" edge="1" parent="WIyWlLk6GJQsqaUBKTNV-1" source="6_tlmnjKF33tlDqkVsmF-3" target="6_tlmnjKF33tlDqkVsmF-6">
          <mxGeometry relative="1" as="geometry" />
        </mxCell>
        <mxCell id="6_tlmnjKF33tlDqkVsmF-19" value="" style="edgeStyle=none;curved=1;rounded=0;orthogonalLoop=1;jettySize=auto;html=1;fontSize=12;startSize=8;endSize=8;" edge="1" parent="WIyWlLk6GJQsqaUBKTNV-1" source="6_tlmnjKF33tlDqkVsmF-3" target="6_tlmnjKF33tlDqkVsmF-18">
          <mxGeometry relative="1" as="geometry" />
        </mxCell>
        <mxCell id="6_tlmnjKF33tlDqkVsmF-3" value="InitGame class" style="rounded=0;whiteSpace=wrap;html=1;" vertex="1" parent="WIyWlLk6GJQsqaUBKTNV-1">
          <mxGeometry x="130" y="190" width="130" height="40" as="geometry" />
        </mxCell>
        <mxCell id="6_tlmnjKF33tlDqkVsmF-11" value="" style="edgeStyle=none;curved=1;rounded=0;orthogonalLoop=1;jettySize=auto;html=1;fontSize=12;startSize=8;endSize=8;" edge="1" parent="WIyWlLk6GJQsqaUBKTNV-1">
          <mxGeometry relative="1" as="geometry">
            <mxPoint x="366.5" y="210" as="sourcePoint" />
            <mxPoint x="366.5" y="330" as="targetPoint" />
          </mxGeometry>
        </mxCell>
        <mxCell id="6_tlmnjKF33tlDqkVsmF-6" value="MainGame class" style="rounded=0;whiteSpace=wrap;html=1;" vertex="1" parent="WIyWlLk6GJQsqaUBKTNV-1">
          <mxGeometry x="294" y="190" width="146" height="50" as="geometry" />
        </mxCell>
        <mxCell id="6_tlmnjKF33tlDqkVsmF-13" value="" style="edgeStyle=none;curved=1;rounded=0;orthogonalLoop=1;jettySize=auto;html=1;fontSize=12;startSize=8;endSize=8;" edge="1" parent="WIyWlLk6GJQsqaUBKTNV-1" source="6_tlmnjKF33tlDqkVsmF-10" target="6_tlmnjKF33tlDqkVsmF-12">
          <mxGeometry relative="1" as="geometry" />
        </mxCell>
        <mxCell id="6_tlmnjKF33tlDqkVsmF-10" value="Player abstract class" style="rounded=0;whiteSpace=wrap;html=1;" vertex="1" parent="WIyWlLk6GJQsqaUBKTNV-1">
          <mxGeometry x="294" y="340" width="146" height="50" as="geometry" />
        </mxCell>
        <mxCell id="6_tlmnjKF33tlDqkVsmF-15" value="" style="edgeStyle=none;curved=1;rounded=0;orthogonalLoop=1;jettySize=auto;html=1;fontSize=12;startSize=8;endSize=8;" edge="1" parent="WIyWlLk6GJQsqaUBKTNV-1" source="6_tlmnjKF33tlDqkVsmF-12" target="6_tlmnjKF33tlDqkVsmF-14">
          <mxGeometry relative="1" as="geometry" />
        </mxCell>
        <mxCell id="6_tlmnjKF33tlDqkVsmF-12" value="ComputerPlayer class" style="rounded=0;whiteSpace=wrap;html=1;" vertex="1" parent="WIyWlLk6GJQsqaUBKTNV-1">
          <mxGeometry x="294" y="530" width="146" height="50" as="geometry" />
        </mxCell>
        <mxCell id="6_tlmnjKF33tlDqkVsmF-17" value="" style="edgeStyle=none;curved=1;rounded=0;orthogonalLoop=1;jettySize=auto;html=1;fontSize=12;startSize=8;endSize=8;" edge="1" parent="WIyWlLk6GJQsqaUBKTNV-1" source="6_tlmnjKF33tlDqkVsmF-14" target="6_tlmnjKF33tlDqkVsmF-16">
          <mxGeometry relative="1" as="geometry" />
        </mxCell>
        <mxCell id="6_tlmnjKF33tlDqkVsmF-14" value="&amp;nbsp;HumanPlayer class" style="rounded=0;whiteSpace=wrap;html=1;" vertex="1" parent="WIyWlLk6GJQsqaUBKTNV-1">
          <mxGeometry x="294" y="700" width="146" height="50" as="geometry" />
        </mxCell>
        <mxCell id="6_tlmnjKF33tlDqkVsmF-16" value="Die class" style="rounded=0;whiteSpace=wrap;html=1;" vertex="1" parent="WIyWlLk6GJQsqaUBKTNV-1">
          <mxGeometry x="294" y="870" width="146" height="50" as="geometry" />
        </mxCell>
        <mxCell id="6_tlmnjKF33tlDqkVsmF-21" value="" style="edgeStyle=none;curved=1;rounded=0;orthogonalLoop=1;jettySize=auto;html=1;fontSize=12;startSize=8;endSize=8;" edge="1" parent="WIyWlLk6GJQsqaUBKTNV-1" source="6_tlmnjKF33tlDqkVsmF-18" target="6_tlmnjKF33tlDqkVsmF-20">
          <mxGeometry relative="1" as="geometry" />
        </mxCell>
        <mxCell id="6_tlmnjKF33tlDqkVsmF-18" value="GUI class" style="rounded=0;whiteSpace=wrap;html=1;" vertex="1" parent="WIyWlLk6GJQsqaUBKTNV-1">
          <mxGeometry x="130" y="350" width="130" height="40" as="geometry" />
        </mxCell>
        <mxCell id="6_tlmnjKF33tlDqkVsmF-23" value="" style="edgeStyle=none;curved=1;rounded=0;orthogonalLoop=1;jettySize=auto;html=1;fontSize=12;startSize=8;endSize=8;" edge="1" parent="WIyWlLk6GJQsqaUBKTNV-1" source="6_tlmnjKF33tlDqkVsmF-20" target="6_tlmnjKF33tlDqkVsmF-22">
          <mxGeometry relative="1" as="geometry" />
        </mxCell>
        <mxCell id="6_tlmnjKF33tlDqkVsmF-20" value="Application class" style="rounded=0;whiteSpace=wrap;html=1;" vertex="1" parent="WIyWlLk6GJQsqaUBKTNV-1">
          <mxGeometry x="130" y="510" width="130" height="40" as="geometry" />
        </mxCell>
        <mxCell id="6_tlmnjKF33tlDqkVsmF-22" value="Difficultu enum&amp;nbsp;" style="rounded=0;whiteSpace=wrap;html=1;" vertex="1" parent="WIyWlLk6GJQsqaUBKTNV-1">
          <mxGeometry x="130" y="670" width="130" height="40" as="geometry" />
        </mxCell>
      </root>
    </mxGraphModel>
  </diagram>
</mxfile>
